<?xml version="1.0" encoding="UTF-8"?>
<svg id="Capa_1" data-name="Capa 1" xmlns="http://www.w3.org/2000/svg" xmlns:xlink="http://www.w3.org/1999/xlink" viewBox="0 0 248 48">
  <defs>
    <style>
      .cls-1 {
        fill: #33658a;
      }

      .cls-1, .cls-2, .cls-3, .cls-4, .cls-5, .cls-6, .cls-7, .cls-8 {
        stroke-width: 0px;
      }

      .cls-2 {
        fill: #17bebb;
      }

      .cls-4 {
        fill: #f26419;
      }

      .cls-5 {
        fill: none;
      }

      .cls-6 {
        fill: #fff;
      }

      .cls-7 {
        fill: #e06c9f;
      }

      .cls-9 {
        mask: url(#mask-1);
      }

      .cls-10 {
        mask: url(#mask);
      }

      .cls-8 {
        fill: #f6ae2d;
      }
    </style>
    <mask id="mask" x="-9.98" y="-1.54" width="65" height="49.93" maskUnits="userSpaceOnUse">
      <g id="mask0_69_46" data-name="mask0 69 46">
        <path class="cls-6" d="m0,23.18c0-2.79.52-5.58,1.5-8.34.23-.62.49-1.25.78-1.87.95-2.04,2.15-3.87,3.65-5.58,1.92-2.17,4.31-3.97,7.14-5.32,2.84-1.38,6.03-2.07,9.65-2.07,4.27,0,7.93.95,10.96,2.82,3.03,1.87,5.28,4.3,6.72,7.32l-3.72,2.23c-.75-1.51-1.7-2.82-2.8-3.87-1.11-1.05-2.28-1.9-3.55-2.56-1.27-.66-2.58-1.12-3.91-1.41-1.34-.3-2.67-.43-3.98-.43-2.87,0-5.41.56-7.63,1.71-2.22,1.15-4.04,2.63-5.58,4.43-1.47,1.87-2.61,3.94-3.36,6.24-.75,2.3-1.14,4.6-1.14,6.96,0,2.56.46,5.02,1.37,7.39.91,2.36,2.19,4.43,3.78,6.24,1.6,1.81,3.49,3.25,5.67,4.3,2.19,1.08,4.57,1.61,7.11,1.61,1.34,0,2.74-.16,4.14-.49,1.4-.33,2.77-.85,4.11-1.58,1.34-.72,2.54-1.61,3.69-2.69,1.11-1.08,2.05-2.36,2.84-3.91l3.91,1.97c-.75,1.74-1.86,3.28-3.23,4.6-1.4,1.35-2.94,2.46-4.66,3.38-1.7.92-3.52,1.61-5.41,2.1-1.92.49-3.78.72-5.64.72-3.29,0-6.29-.69-9.03-2.1-2.74-1.38-5.09-3.22-7.08-5.45-1.99-2.23-3.52-4.79-4.63-7.65-1.11-2.82-1.66-5.75-1.66-8.7Z"/>
      </g>
    </mask>
    <mask id="mask-1" x="-9.98" y="-1.58" width="65" height="50.03" maskUnits="userSpaceOnUse">
      <g id="mask1_69_46" data-name="mask1 69 46">
        <path class="cls-6" d="m22.5,48.46c14.23,0,25.77-11.2,25.77-25.02S36.73-1.58,22.5-1.58-3.26,9.62-3.26,23.44s11.54,25.02,25.77,25.02Z"/>
      </g>
    </mask>
  </defs>
  <rect class="cls-5" x="51.02" y="11.42" width="196" height="36"/>
  <g>
    <path class="cls-3" d="m65,24.79c-.28.6-.63,1.09-1.05,1.48-.42.42-.87.74-1.36,1.02-.49.28-1.01.49-1.54.6-.52.14-1.05.18-1.54.18-.94,0-1.82-.21-2.62-.63-.8-.42-1.5-.99-2.1-1.66-.59-.71-1.05-1.52-1.4-2.4-.35-.92-.52-1.87-.52-2.86,0-.92.14-1.8.42-2.68.28-.88.7-1.69,1.26-2.4.56-.71,1.26-1.27,2.06-1.73.8-.42,1.75-.67,2.83-.67.49,0,.98.07,1.47.18.49.11.98.28,1.43.53.45.25.91.56,1.33.99.42.39.77.92,1.05,1.48l.03.04,1.47-.92v-.04c-.52-1.16-1.4-2.12-2.52-2.86-1.19-.63-2.55-.99-4.16-.99-1.33,0-2.55.28-3.63.81-1.05.53-1.96,1.23-2.69,2.08-.73.85-1.29,1.83-1.64,2.89-.38,1.06-.56,2.19-.56,3.24,0,1.16.21,2.29.63,3.42.42,1.09.98,2.12,1.75,3,.73.88,1.64,1.59,2.66,2.12,1.01.53,2.17.81,3.39.81.7,0,1.4-.11,2.1-.28.7-.18,1.4-.46,2.03-.81.63-.35,1.22-.81,1.75-1.3.52-.53.94-1.13,1.22-1.8v-.04l-1.54-.85v.04Z"/>
    <path class="cls-3" d="m87.68,14.35c-.73-.85-1.61-1.59-2.66-2.12-1.05-.53-2.2-.81-3.42-.81s-2.31.25-3.35.74c-1.01.49-1.92,1.2-2.69,2.05-.77.85-1.36,1.83-1.78,2.93-.42,1.09-.63,2.26-.63,3.46s.21,2.29.59,3.38c.42,1.09.98,2.08,1.71,2.96.73.85,1.64,1.55,2.66,2.08,1.05.53,2.2.78,3.42.78s2.31-.25,3.35-.74c1.01-.49,1.92-1.16,2.66-2.01.73-.85,1.33-1.83,1.78-2.93.42-1.09.63-2.26.63-3.46,0-1.13-.21-2.26-.59-3.35-.38-1.13-.94-2.12-1.68-2.96Zm.45,6.24c0,.92-.14,1.83-.45,2.71-.31.88-.73,1.69-1.33,2.4-.56.71-1.26,1.27-2.06,1.73-.8.42-1.71.67-2.73.67s-1.89-.21-2.66-.63c-.8-.42-1.5-.99-2.06-1.66-.59-.71-1.05-1.52-1.36-2.4s-.49-1.83-.49-2.82c0-.92.14-1.83.45-2.72s.73-1.69,1.33-2.4c.56-.71,1.26-1.27,2.06-1.69.8-.42,1.71-.63,2.73-.63s1.85.21,2.66.63c.8.42,1.5.95,2.06,1.66.59.67,1.05,1.48,1.36,2.4.31.85.49,1.8.49,2.75Z"/>
    <path class="cls-3" d="m100.08,11.57h-1.85v18.09h12.2v-1.66h-10.34V11.57Z"/>
    <path class="cls-3" d="m130.17,14.35c-.73-.85-1.61-1.59-2.66-2.12-1.05-.53-2.2-.81-3.42-.81s-2.31.25-3.35.74c-1.01.49-1.92,1.2-2.69,2.05-.77.85-1.36,1.83-1.78,2.93-.42,1.09-.63,2.26-.63,3.46s.21,2.29.59,3.38c.42,1.09.98,2.08,1.71,2.96.73.85,1.64,1.55,2.66,2.08,1.05.53,2.2.78,3.42.78s2.31-.25,3.35-.74c1.01-.49,1.92-1.16,2.66-2.01.73-.85,1.33-1.83,1.78-2.93.42-1.09.63-2.26.63-3.46,0-1.13-.21-2.26-.59-3.35-.38-1.13-.94-2.12-1.68-2.96Zm.45,6.24c0,.92-.14,1.83-.45,2.71-.32.88-.73,1.69-1.33,2.4-.56.71-1.26,1.27-2.06,1.73-.8.42-1.71.67-2.72.67s-1.89-.21-2.66-.63c-.8-.42-1.5-.99-2.06-1.66-.59-.71-1.05-1.52-1.36-2.4-.31-.88-.49-1.83-.49-2.82,0-.92.14-1.83.45-2.72.32-.88.73-1.69,1.33-2.4.56-.71,1.26-1.27,2.06-1.69.8-.42,1.71-.63,2.73-.63s1.85.21,2.65.63c.8.42,1.5.95,2.06,1.66.59.67,1.05,1.48,1.36,2.4.31.85.49,1.8.49,2.75Z"/>
    <path class="cls-3" d="m149.56,23.84l-6.92-12.27h-1.89v18.09h1.82v-14.67l6.46,11.32h1.08l6.43-11.32v14.67h1.85V11.57h-1.85l-6.99,12.27Z"/>
    <path class="cls-3" d="m179.86,28.35c.45-.42.84-.92,1.08-1.48.28-.56.42-1.2.42-1.87,0-1.09-.31-2.08-.91-2.93-.59-.81-1.36-1.38-2.34-1.69.77-.39,1.36-.92,1.82-1.66.45-.74.7-1.62.7-2.54,0-.56-.1-1.13-.28-1.69-.21-.56-.49-1.06-.84-1.48-.35-.42-.8-.78-1.29-1.06-.53-.28-1.08-.42-1.71-.42h-8.63v18.12h8.46c.7,0,1.36-.11,1.96-.35.6-.21,1.12-.53,1.57-.95Zm-10.17-7.05h6.78c.42,0,.84.11,1.19.28.38.18.7.46.98.74.28.32.49.67.63,1.09.14.42.21.85.21,1.27s-.07.85-.24,1.27-.38.78-.7,1.09c-.28.32-.63.56-1.01.74-.38.18-.8.28-1.26.28h-6.64v-6.77h.07Zm8.88-3.6c-.14.39-.35.74-.63,1.02-.28.28-.59.53-.94.74-.38.18-.77.28-1.19.28h-6.08v-6.56h6.26c.42,0,.8.11,1.15.25.35.18.66.42.91.71.24.28.45.63.59,1.02.14.39.21.85.21,1.27-.07.46-.14.88-.28,1.27Z"/>
    <path class="cls-3" d="m196.35,11.57h-1.54l-7.51,18.09h1.99l2.31-5.64h7.93l2.31,5.61v.04h1.96l-7.44-18.09Zm2.73,10.97h-7.13l3.6-8.74,3.53,8.74Z"/>
    <path class="cls-3" d="m220.25,22.71c.59-.11,1.12-.35,1.57-.67.49-.32.91-.74,1.26-1.23.35-.49.63-1.02.8-1.62.21-.6.28-1.23.28-1.9,0-.71-.14-1.41-.39-2.08-.24-.67-.63-1.3-1.12-1.83-.45-.53-1.05-.99-1.68-1.3-.66-.32-1.36-.49-2.13-.49h-7.58v18.12h1.85v-6.66h5.21l4.19,6.63v.04h2.1l-4.37-6.98Zm1.15-2.61c-.28.39-.66.71-1.08.92-.42.21-.87.35-1.4.35h-5.8v-8.15h5.63c.49,0,.94.11,1.36.32.45.21.84.53,1.15.88.31.35.59.81.77,1.3.18.49.28,1.02.28,1.55s-.07,1.06-.24,1.55c-.14.46-.35.88-.66,1.27Z"/>
    <path class="cls-3" d="m245.06,29.65h1.96l-7.44-18.09v-.04h-1.54l-7.51,18.12h1.99l2.31-5.64h7.97l2.27,5.64Zm-2.76-7.12h-7.13l3.6-8.74,3.53,8.74Z"/>
    <path class="cls-3" d="m116.19,41.92h3.42v-.6h-3.42v-2.54h3.91v-.6h-4.61v7.02h4.68v-.6h-3.98v-2.68Z"/>
    <path class="cls-3" d="m128.88,42.84c-.18-.11-.38-.21-.63-.28-.24-.07-.52-.14-.87-.25-.24-.04-.42-.11-.59-.14-.17-.04-.28-.11-.38-.18-.1-.07-.17-.14-.21-.21-.03-.07-.07-.21-.07-.35,0-.18.04-.32.11-.42.07-.11.14-.21.28-.32.1-.07.24-.14.38-.18.14-.04.31-.07.49-.07.28,0,.59.04.84.14.28.11.49.25.7.46l.31-.39c-.21-.21-.45-.39-.77-.49-.31-.14-.66-.18-1.08-.18-.24,0-.52.04-.73.11-.24.07-.42.18-.59.28-.17.14-.31.28-.42.49-.11.21-.14.42-.14.67,0,.21.03.39.1.49.07.14.18.25.32.35.14.11.31.18.52.25.21.07.45.14.77.21.24.07.49.11.66.18.21.07.35.11.49.18.14.07.21.14.28.25.07.11.1.21.1.35,0,.32-.14.56-.38.71-.24.18-.56.25-.98.25-.35,0-.66-.07-.94-.18-.32-.11-.59-.28-.87-.53l-.31.46c.28.25.59.46.98.56.38.14.77.21,1.15.21.59,0,1.08-.14,1.47-.42.38-.28.52-.67.52-1.13,0-.21-.04-.39-.14-.56-.04-.11-.17-.21-.35-.32Z"/>
    <path class="cls-3" d="m136.88,44.57c-.14.07-.31.11-.49.11s-.28-.04-.42-.14c-.14-.11-.17-.25-.21-.42v-3.49h1.19v-.53h-1.19v-1.73h-.66v1.73h-.7v.53h.7v3.7c0,.18.04.32.1.42.07.14.14.25.24.32s.21.14.35.18c.14.04.28.07.42.07s.28,0,.38-.04c.14-.04.24-.07.35-.11.1-.04.17-.07.24-.11.07-.04.14-.07.17-.07l-.17-.53c-.07,0-.18.04-.32.11Z"/>
    <path class="cls-3" d="m143.97,40.37c-.31.21-.56.53-.77.92v-1.23h-.63v5.15h.66v-3.21c.14-.42.38-.74.7-.99.35-.25.73-.35,1.19-.39v-.6h-.14c-.35,0-.7.11-1.01.35Z"/>
    <path class="cls-3" d="m154.28,44.36v-2.33c0-.63-.18-1.13-.56-1.52-.38-.39-.87-.53-1.5-.53s-1.26.21-1.92.67l.24.46c.28-.21.56-.35.84-.46.28-.11.56-.14.8-.14.45,0,.8.14,1.05.39.24.25.38.63.38,1.09v.46c-.21-.07-.45-.14-.73-.21-.28-.04-.52-.07-.8-.07-.32,0-.59.04-.87.11-.24.07-.49.18-.66.32-.17.14-.35.32-.45.49s-.14.39-.14.63.04.42.14.63c.07.21.21.35.35.49.14.14.35.25.52.35.21.07.42.14.66.14.42,0,.8-.07,1.15-.25.35-.18.66-.39.87-.71l.04.42c0,.14.07.28.14.35.1.07.24.14.38.14.07,0,.14,0,.24-.04v-.6c-.1-.04-.17-.14-.17-.32Zm-.66-.67c0,.07,0,.14-.04.18-.04.07-.07.14-.14.18-.14.21-.38.39-.66.53-.28.14-.59.21-.94.21-.17,0-.31-.04-.49-.11-.14-.07-.28-.14-.38-.25-.1-.11-.21-.21-.24-.35-.07-.14-.1-.28-.1-.46,0-.32.14-.6.45-.78.32-.18.66-.28,1.15-.28.25,0,.49.04.73.07.24.04.45.11.7.21v.85h-.03Z"/>
    <path class="cls-3" d="m162.11,44.57c-.14.07-.31.11-.49.11-.14,0-.28-.04-.42-.14s-.18-.25-.21-.42v-3.49h1.19v-.53h-1.19v-1.73h-.66v1.73h-.7v.53h.7v3.7c0,.18.03.32.1.42.07.14.14.25.24.32.11.07.21.14.35.18.14.04.28.07.42.07s.28,0,.38-.04c.14-.04.25-.07.35-.11.11-.04.18-.07.25-.11.07-.04.14-.07.17-.07l-.17-.53c-.11,0-.18.04-.31.11Z"/>
    <path class="cls-3" d="m171.68,40.76c-.21-.25-.49-.42-.8-.56-.31-.14-.66-.21-1.01-.21s-.7.07-1.01.21c-.32.14-.59.32-.8.56-.21.25-.42.53-.52.85-.14.32-.17.67-.17,1.02s.07.71.17,1.06c.14.32.31.6.52.85.25.25.49.46.8.6.31.14.66.21,1.01.21.24,0,.49-.04.73-.11.24-.07.45-.14.63-.28.17-.11.35-.25.49-.42.14-.14.24-.32.35-.53l-.59-.18c-.07.14-.14.28-.24.39-.11.11-.25.21-.39.28-.14.07-.28.14-.45.18-.18.04-.31.07-.49.07-.24,0-.49-.04-.7-.14-.21-.11-.42-.25-.59-.39-.18-.14-.31-.39-.42-.6-.1-.25-.18-.49-.18-.78h4.37v-.25c0-.35-.07-.71-.18-1.02-.1-.28-.28-.56-.52-.81Zm-3.67,1.62c.04-.28.07-.53.18-.74.11-.25.24-.42.42-.6s.35-.28.59-.39c.21-.11.45-.14.7-.14s.49.04.7.14c.21.11.42.21.59.39s.31.35.42.6c.11.21.18.49.18.78h-3.77v-.04Z"/>
    <path class="cls-3" d="m181.82,41.15c-.24-.35-.49-.6-.84-.85-.31-.21-.7-.32-1.15-.32-.35,0-.66.07-.98.21-.28.14-.56.35-.73.6-.21.25-.38.53-.49.85-.1.32-.17.67-.17,1.02s.07.67.17.99c.1.32.28.6.49.85.21.25.45.46.77.6.28.14.63.21.98.21.38,0,.73-.11,1.08-.28.35-.18.59-.46.8-.78v1.02c0,.28-.03.53-.14.74-.1.21-.24.39-.38.53-.17.14-.35.25-.59.32-.21.07-.46.11-.7.11-.38,0-.73-.07-1.08-.25-.35-.14-.59-.39-.8-.74l-.42.32c.21.35.52.63.87.85.35.21.84.32,1.43.32.35,0,.66-.04.98-.14.31-.11.56-.25.8-.42.24-.18.42-.42.52-.71.11-.28.21-.6.21-.95v-5.18h-.59v1.09h-.04Zm-.04,2.29c-.04.18-.1.32-.21.46-.11.14-.24.28-.38.42-.14.11-.32.21-.52.28-.18.07-.39.11-.59.11-.28,0-.52-.07-.73-.18-.24-.11-.42-.25-.59-.46-.18-.18-.32-.42-.42-.67-.1-.25-.14-.53-.14-.78s.04-.53.14-.78c.07-.25.21-.46.35-.67.14-.21.35-.35.56-.49.21-.11.49-.18.77-.18.17,0,.35.04.56.11.21.07.35.14.49.28.14.11.31.25.42.42.14.18.21.32.28.53v1.59h.04Z"/>
    <path class="cls-3" d="m188.98,40.05h-.66v5.15h.66v-5.15Z"/>
    <path class="cls-3" d="m188.98,37.97h-.66v.99h.66v-.99Z"/>
    <path class="cls-3" d="m198.76,44.36v-2.33c0-.63-.18-1.13-.56-1.52-.38-.39-.87-.53-1.5-.53s-1.26.21-1.92.67l.24.46c.28-.21.56-.35.84-.46.28-.11.56-.14.8-.14.45,0,.8.14,1.05.39.24.25.38.63.38,1.09v.46c-.21-.07-.46-.14-.73-.21-.28-.04-.52-.07-.8-.07-.31,0-.59.04-.87.11-.25.07-.49.18-.66.32-.18.14-.35.32-.46.49-.1.18-.14.39-.14.63s.04.42.14.63c.07.21.21.35.35.49.14.14.35.25.52.35.21.07.42.14.66.14.42,0,.8-.07,1.15-.25.35-.18.66-.39.87-.71l.04.42c0,.14.07.28.14.35.1.07.24.14.38.14.07,0,.14,0,.24-.04v-.6c-.07-.04-.17-.14-.17-.32Zm-.66-.67c0,.07,0,.14-.04.18-.03.07-.07.14-.14.18-.14.21-.38.39-.66.53-.28.14-.59.21-.94.21-.18,0-.32-.04-.49-.11-.14-.07-.28-.14-.38-.25-.1-.11-.21-.21-.24-.35-.07-.14-.1-.28-.1-.46,0-.32.14-.6.46-.78.31-.18.66-.28,1.15-.28.24,0,.49.04.73.07.24.04.45.11.7.21v.85h-.04Z"/>
    <path class="cls-3" d="m205.44,38.19h-.66v7.02h4.72v-.6h-4.05v-6.42Z"/>
    <path class="cls-3" d="m218.58,40.76c-.21-.25-.49-.42-.8-.56-.31-.14-.66-.21-1.01-.21s-.7.07-1.01.21c-.31.14-.59.32-.8.56-.21.25-.42.53-.52.85-.14.32-.17.67-.17,1.02s.07.71.17,1.06c.14.32.31.6.52.85.24.25.49.46.8.6.32.14.66.21,1.01.21.24,0,.49-.04.73-.11.24-.07.46-.14.63-.28.18-.11.35-.25.49-.42.14-.14.24-.32.35-.53l-.59-.18c-.07.14-.14.28-.24.39-.1.11-.24.21-.38.28-.14.07-.28.14-.45.18-.18.04-.32.07-.49.07-.25,0-.49-.04-.7-.14-.21-.11-.42-.25-.59-.39-.18-.14-.32-.39-.42-.6-.1-.25-.17-.49-.17-.78h4.37v-.25c0-.35-.07-.71-.17-1.02-.14-.28-.32-.56-.52-.81Zm-3.7,1.62c.04-.28.07-.53.17-.74.1-.25.24-.42.42-.6.17-.18.35-.28.59-.39.21-.11.45-.14.7-.14s.49.04.7.14c.21.11.42.21.59.39.17.18.31.35.42.6.11.21.18.49.18.78h-3.77v-.04Z"/>
    <path class="cls-3" d="m228.71,41.15c-.24-.35-.49-.6-.84-.85-.32-.21-.7-.32-1.15-.32-.35,0-.66.07-.98.21-.28.14-.52.35-.73.6-.21.25-.38.53-.49.85-.11.32-.18.67-.18,1.02s.07.67.18.99c.1.32.28.6.49.85.21.25.46.46.77.6.32.11.66.18,1.01.18.38,0,.73-.11,1.08-.28.35-.18.59-.46.8-.78v1.02c0,.28-.03.53-.14.74-.11.21-.25.39-.39.53-.14.14-.35.25-.59.32-.21.07-.45.11-.7.11-.38,0-.73-.07-1.08-.25-.35-.18-.59-.39-.8-.74l-.42.32c.21.35.52.63.87.85.35.21.84.32,1.43.32.35,0,.66-.04.98-.14.31-.11.56-.25.8-.42.24-.18.42-.42.52-.71.14-.28.21-.6.21-.95v-5.15h-.59v1.09h-.07Zm-.07,2.29c-.04.18-.1.32-.21.46-.1.14-.24.28-.38.42-.14.14-.31.21-.52.28-.17.07-.38.11-.59.11-.28,0-.52-.07-.73-.18-.24-.11-.42-.25-.59-.46-.17-.18-.31-.42-.42-.67-.1-.25-.14-.53-.14-.78s.04-.53.14-.78c.07-.25.21-.46.35-.67.14-.21.35-.35.56-.49.21-.14.49-.18.77-.18.18,0,.35.04.56.11.18.07.35.14.49.28.14.11.31.25.42.42.14.18.21.32.28.53v1.59h.04Z"/>
    <path class="cls-3" d="m239.12,44.36v-2.33c0-.63-.18-1.13-.56-1.52-.38-.39-.87-.53-1.5-.53s-1.26.21-1.92.67l.24.46c.28-.21.56-.35.84-.46.28-.11.56-.14.8-.14.45,0,.8.14,1.05.39.24.25.38.63.38,1.09v.46c-.21-.07-.46-.14-.73-.21-.28-.04-.52-.07-.8-.07-.31,0-.59.04-.87.11-.25.07-.49.18-.66.32-.18.14-.35.32-.46.49-.1.18-.14.39-.14.63s.04.42.14.63c.07.21.21.35.35.49.14.14.35.25.52.35.21.07.42.14.66.14.42,0,.8-.07,1.15-.25.35-.18.66-.39.87-.71l.04.42c0,.14.07.28.14.35.1.07.24.14.38.14.07,0,.14,0,.24-.04v-.6c-.1-.04-.17-.14-.17-.32Zm-.7-.67c0,.07,0,.14-.03.18-.04.07-.07.14-.14.18-.14.21-.38.39-.66.53-.28.14-.59.21-.94.21-.18,0-.32-.04-.49-.11-.14-.07-.28-.14-.38-.25-.11-.11-.21-.21-.25-.35-.07-.14-.1-.28-.1-.46,0-.32.14-.6.45-.78.31-.18.66-.28,1.15-.28.24,0,.49.04.73.07.25.04.45.11.7.21v.85h-.04Z"/>
    <path class="cls-3" d="m246.5,44.64c-.1.04-.18.04-.24.04-.17,0-.35-.07-.45-.18-.1-.11-.18-.25-.18-.46v-6.06h-.66v6.28c0,.32.11.56.28.74.17.18.42.25.73.25.14,0,.28,0,.45-.04.18-.04.35-.07.45-.14l-.11-.53c-.07.07-.17.07-.28.11Z"/>
  </g>
  <g class="cls-10">
    <g class="cls-9">
      <g>
        <path class="cls-4" d="m55.02,8.47H-9.98v10.01H55.02v-10.01Z"/>
        <path class="cls-7" d="m55.02-1.54H-9.98v10.01H55.02V-1.54Z"/>
        <path class="cls-8" d="m55.02,18.48H-9.98v10.01H55.02v-10.01Z"/>
        <path class="cls-2" d="m55.02,28.43H-9.98v10.01H55.02v-10.01Z"/>
        <path class="cls-1" d="m55.02,38.38H-9.98v10.01H55.02v-10.01Z"/>
      </g>
    </g>
  </g>
</svg>